<svg width="95" height="81" viewBox="0 0 95 81" fill="none" xmlns="http://www.w3.org/2000/svg">
<path d="M47.5 19.3006C52.5784 19.3006 56.6953 15.019 56.6953 9.73744C56.6953 4.45587 52.5784 0.174316 47.5 0.174316C42.4216 0.174316 38.3047 4.45587 38.3047 9.73744C38.3047 15.019 42.4216 19.3006 47.5 19.3006Z" fill="url(#paint0_linear_52_522)"/>
<path d="M53.1175 20.7718H41.8825C38.8988 20.6449 35.9867 21.7076 33.7861 23.7264C31.5854 25.7453 30.2762 28.5551 30.1459 31.5387V46.084C30.1605 47.7997 30.7048 49.4691 31.7043 50.8637C32.7039 52.2582 34.1099 53.31 35.73 53.8749V73.2687C35.6642 74.9934 36.2677 76.6767 37.4143 77.9667C38.561 79.2567 40.162 80.0534 41.8825 80.1902H53.1175C54.838 80.0534 56.439 79.2567 57.5857 77.9667C58.7323 76.6767 59.3358 74.9934 59.27 73.2687V53.8749C60.8795 53.3138 62.278 52.2723 63.2766 50.891C64.2752 49.5097 64.8258 47.8551 64.8541 46.1509V31.5387C64.7238 28.5551 63.4146 25.7453 61.2139 23.7264C59.0133 21.7076 56.1012 20.6449 53.1175 20.7718ZM14.0625 21.9756C15.1746 22.0155 16.2733 21.7223 17.2176 21.1336C18.1619 20.5448 18.9087 19.6873 19.3623 18.6711C19.8159 17.6549 19.9555 16.5264 19.7632 15.4303C19.5709 14.3342 19.0556 13.3206 18.2832 12.5194C17.5109 11.7183 16.5167 11.1662 15.4284 10.934C14.3401 10.7018 13.2072 10.8 12.1751 11.2161C11.143 11.6322 10.2588 12.3472 9.63589 13.2693C9.01297 14.1915 8.67978 15.2787 8.67906 16.3915C8.66577 17.1117 8.79448 17.8274 9.05785 18.4978C9.32122 19.1682 9.71409 19.7802 10.214 20.2987C10.7139 20.8173 11.3111 21.2323 11.9714 21.52C12.6318 21.8077 13.3423 21.9625 14.0625 21.9756ZM18.075 24.6506H10.05C7.68925 24.5412 5.38086 25.3688 3.62737 26.9532C1.87387 28.5376 0.817241 30.7505 0.6875 33.1102V43.1415C0.706972 44.6089 1.20857 46.0291 2.11495 47.1832C3.02134 48.3374 4.28219 49.1613 5.70312 49.5281V62.2677C5.61016 63.7047 6.0827 65.1211 7.01984 66.2145C7.95698 67.3078 9.28444 67.9914 10.7188 68.1193H17.7072C18.4325 68.0644 19.1398 67.8666 19.7885 67.5374C20.4371 67.2081 21.0142 66.7538 21.4865 66.2006C21.9589 65.6474 22.3172 65.0063 22.5409 64.3142C22.7645 63.622 22.8491 62.8924 22.7897 62.1674V49.3274C24.1259 48.8996 25.2937 48.0624 26.1278 46.9342C26.962 45.806 27.4201 44.4441 27.4375 43.0412V33.0099C27.2825 30.6681 26.2149 28.4805 24.4642 26.9174C22.7135 25.3543 20.4194 24.5403 18.075 24.6506ZM80.9375 21.9756C82.0496 22.0155 83.1483 21.7223 84.0926 21.1336C85.0369 20.5448 85.7837 19.6873 86.2373 18.6711C86.6909 17.6549 86.8305 16.5264 86.6382 15.4303C86.4459 14.3342 85.9306 13.3206 85.1582 12.5194C84.3858 11.7183 83.3917 11.1662 82.3034 10.934C81.2151 10.7018 80.0822 10.8 79.0501 11.2161C78.018 11.6322 77.1338 12.3472 76.5109 13.2693C75.888 14.1915 75.5548 15.2787 75.5541 16.3915C75.5408 17.1117 75.6695 17.8274 75.9329 18.4978C76.1962 19.1682 76.5891 19.7802 77.089 20.2987C77.5889 20.8173 78.1861 21.2323 78.8465 21.52C79.5068 21.8077 80.2173 21.9625 80.9375 21.9756ZM84.95 24.6506H76.925C74.5642 24.5412 72.2559 25.3688 70.5024 26.9532C68.7489 28.5376 67.6922 30.7505 67.5625 33.1102V43.1415C67.582 44.6089 68.0836 46.0291 68.99 47.1832C69.8963 48.3374 71.1572 49.1613 72.5781 49.5281V62.2677C72.4852 63.7047 72.9577 65.1211 73.8948 66.2145C74.832 67.3078 76.1594 67.9914 77.5938 68.1193H84.5153C85.2406 68.0644 85.948 67.8666 86.5966 67.5374C87.2452 67.2081 87.8223 66.7538 88.2947 66.2006C88.767 65.6474 89.1253 65.0063 89.349 64.3142C89.5726 63.622 89.6572 62.8924 89.5978 62.1674V49.3274C90.9465 48.9112 92.1289 48.079 92.9758 46.9498C93.8227 45.8206 94.2906 44.4525 94.3125 43.0412V33.0099C94.1575 30.6681 93.0899 28.4805 91.3392 26.9174C89.5885 25.3543 87.2944 24.5403 84.95 24.6506Z" fill="url(#paint1_linear_52_522)"/>
<defs>
<linearGradient id="paint0_linear_52_522" x1="47.5" y1="0.174316" x2="47.5" y2="19.3006" gradientUnits="userSpaceOnUse">
<stop stop-color="#007ADD"/>
<stop offset="1" stop-color="#80E66F"/>
</linearGradient>
<linearGradient id="paint1_linear_52_522" x1="47.5" y1="10.811" x2="47.5" y2="80.1902" gradientUnits="userSpaceOnUse">
<stop stop-color="#007ADD"/>
<stop offset="1" stop-color="#80E66F"/>
</linearGradient>
</defs>
</svg>
