<svg width="2236" height="1172" viewBox="0 0 2236 1172" fill="none" xmlns="http://www.w3.org/2000/svg">
<path d="M0.224255 357.069C-9.4869 78.6098 298.251 -95.5391 531.965 56.1563L956.306 255.689C1115.19 330.397 1301.23 318.712 1449.52 224.712L1499.5 193.027C1812.34 -5.28735 2222.3 211.006 2235.21 581.18C2242.85 800.255 2100.91 996.6 1890.48 1058.03L1680.73 1119.27C1646.28 1129.33 1610.91 1135.88 1575.15 1138.85L1200.63 1169.86C1153.27 1173.78 1105.6 1171.37 1058.88 1162.67L524.202 1063.19C428.272 1045.35 339.067 1001.55 266.274 936.575L150.24 832.998C62.279 754.48 10.2112 643.437 6.10168 525.601L0.224255 357.069Z" fill="#E6F0FF" fill-opacity="0.8"/>
</svg>
